# xmcd CD database file
#
# Track frame offsets:
#	150
#	17872
#	36811
#	54341
#	70143
#	84025
#	105184
#	119032
#	128534
#	143400
#	154682
#	173276
#	193618
#	210998
#
# Disc length: 2987 seconds
#
# Revision: 1
# Processed by: cddbd v1.5.2PL0 Copyright (c) Steve Scherf et al.
# Submitted via: CDex 1.70beta2
#
DISCID=a10ba90e
DTITLE=Axel Jankowski - Moment's Spring
DYEAR=2006
DGENRE=Jazz
TTITLE0=A New Dawn
TTITLE1=The Boxer
TTITLE2=L'escargot
TTITLE3=Robbie Robs
TTITLE4=Strange Citynights
TTITLE5=Moment's Spring
TTITLE6=Mr. Boogaloo
TTITLE7=Adieu
TTITLE8=Lost
TTITLE9=Little Song
TTITLE10=Für Hanna
TTITLE11=Different
TTITLE12=Leaving
TTITLE13=6 Is In The House
EXTD=YEAR: 2006
EXTT0=
EXTT1=
EXTT2=
EXTT3=
EXTT4=
EXTT5=
EXTT6=
EXTT7=
EXTT8=
EXTT9=
EXTT10=
EXTT11=
EXTT12=
EXTT13=
PLAYORDER=
